<?xml version="1.0" encoding="utf-8"?>
<!-- Generator: Adobe Illustrator 21.1.0, SVG Export Plug-In . SVG Version: 6.00 Build 0)  -->
<svg version="1.1" id="Layer_1" xmlns="http://www.w3.org/2000/svg" xmlns:xlink="http://www.w3.org/1999/xlink" x="0px" y="0px"
	 viewBox="0 0 170.4 170.4" style="enable-background:new 0 0 170.4 170.4;" xml:space="preserve">
<style type="text/css">
	.st0{fill:#71664E;}
	.st1{fill:#FFFFFF;}
</style>
<title>boat-ramp</title>
<g id="Layer_2">
	<g id="Layer_1-2">
		<g>
			<circle class="st0" cx="85.2" cy="85.2" r="85.2"/>
			<g>
				<path class="st1" d="M41.2,42.7c1.5,2.7,4.2,5.5,8.2,8.4c4.6,3.2,9.8,5.5,15.2,6.8l82.8,23.2l6.1-22.6L70.7,35.3l15.1-10.6
					l-5.3-1.4l-15,10.9l-27.3-7.5l-0.3,2.2c-0.2,2,0,4,0.4,6C38.8,37.7,39.8,40.3,41.2,42.7L41.2,42.7z"/>
				<path class="st1" d="M110.9,84.2l35.7,10l1.1-4.7l-37.9-10.6C110.3,80.5,110.7,82.3,110.9,84.2L110.9,84.2z"/>
				<path class="st1" d="M79.9,70.8L16.6,53.2v5l59.7,16.5C77.4,73.2,78.6,71.9,79.9,70.8L79.9,70.8z"/>
				<path class="st1" d="M153.5,116.5l-63-17.3c0.2,0,0.5,0.1,0.7,0.1s0.5,0.1,0.7,0.1c7.8,0,14.2-6.4,14.2-14.2
					c0-3.8-1.5-7.4-4.2-10c-2.6-2.7-6.2-4.2-10-4.2c-3.7-0.1-7.3,1.4-10,4c-2.8,2.7-4.3,6.3-4.2,10.2c0,5.9,2.7,10.2,8.1,12.8
					L16.6,78.8l0.3,50.2c2.9,0,5.7-0.5,8.4-1.7c5.5-2.6,11.8-2.6,17.3,0c5.4,2.2,11.6,2.2,17,0c5.5-2.6,11.8-2.6,17.3,0
					c5.4,2.2,11.6,2.2,17,0c5.5-2.6,11.8-2.6,17.3,0c5.4,2.2,11.4,2.2,16.7,0c2.7-1.3,5.6-2,8.6-2c3.1,0,6.1,0.7,8.9,2
					c2.6,1.1,5.5,1.7,8.4,1.7L153.5,116.5z M85.8,85.1c-0.1-1.6,0.6-3.2,1.8-4.3c2.4-2.2,6.2-2.2,8.6,0c1.2,1.1,1.9,2.7,1.8,4.3
					c0,1.7-0.6,3.3-1.8,4.5C93.9,92,90,92,87.7,89.7c0,0,0,0-0.1-0.1C86.4,88.4,85.7,86.8,85.8,85.1z"/>
			</g>
		</g>
	</g>
</g>
</svg>
