<?xml version="1.0" encoding="utf-8"?>
<!-- Generator: Adobe Illustrator 21.1.0, SVG Export Plug-In . SVG Version: 6.00 Build 0)  -->
<svg version="1.1" id="Layer_1" xmlns="http://www.w3.org/2000/svg" xmlns:xlink="http://www.w3.org/1999/xlink" x="0px" y="0px"
	 viewBox="0 0 170.4 170.4" style="enable-background:new 0 0 170.4 170.4;" xml:space="preserve">
<style type="text/css">
	.st0{fill:#71664E;}
	.st1{fill:#FFFFFF;}
</style>
<title>camping</title>
<g id="Layer_2">
	<g id="Layer_1-2">
		<g>
			<circle class="st0" cx="85.2" cy="85.2" r="85.2"/>
			<g>
				<path class="st1" d="M108.6,25.8c-0.9-1-2.1-1.7-3.5-1.8H74.6c-1.1,0-1.1,0.8-0.6,1.8l54,93.8c0.5,0.9,1.8,1,2.8,0.7l29.5-9.2
					c0.9-0.3,1.3-1.2,1-2.1c0-0.1-0.1-0.3-0.2-0.4L108.6,25.8z"/>
				<path class="st1" d="M35.3,119.6L61.4,64v53.8c0,4.8,5.1,4.5,6.2,4.5h50.8c1.1,0,1.5-1.8,1-2.7l-52.5-93
					c-0.1-0.5-0.7-0.8-1.2-0.7c-0.3,0.1-0.6,0.4-0.7,0.7L51.8,49.7c-0.7,1.1-1.6,2-2.7,2.7C35.8,59.7,17.9,69.6,10,73.1
					c-1.2,0.5-1.1,2-0.2,2.9c3.3,3.2,6.3,6.7,9,10.4c2,2.8,3.7,5.8,5.2,8.9c0.5,1.1,0.4,2.4-0.2,3.5l-11.3,20.8
					c-0.5,0.9-0.1,2.7,1,2.7h19C33.6,122.3,34.9,120.6,35.3,119.6L35.3,119.6z M20.2,76.7c-0.3-0.2-0.4-0.7-0.2-1
					c0.1-0.1,0.2-0.2,0.4-0.3c5.6-2.9,32-16.8,39.4-21.3c0.6-0.3,0.8-0.2,0.5,0.4l-25.1,49.3c-0.3,0.6-0.6,0.5-0.8-0.1
					C33.4,99.6,29.5,85.1,20.2,76.7L20.2,76.7z"/>
			</g>
		</g>
	</g>
</g>
</svg>
