<?xml version="1.0" encoding="utf-8"?>
<!-- Generator: Adobe Illustrator 21.1.0, SVG Export Plug-In . SVG Version: 6.00 Build 0)  -->
<svg version="1.1" id="Layer_1" xmlns="http://www.w3.org/2000/svg" xmlns:xlink="http://www.w3.org/1999/xlink" x="0px" y="0px"
	 viewBox="0 0 170.4 170.4" style="enable-background:new 0 0 170.4 170.4;" xml:space="preserve">
<style type="text/css">
	.st0{fill:#71664E;}
	.st1{fill:#FFFFFF;}
</style>
<title>hiking</title>
<g id="Layer_2">
	<g id="Layer_1-2">
		<g>
			<circle class="st0" cx="85.2" cy="85.2" r="85.2"/>
			<g>
				<g>
					<path class="st1" d="M89.1,31.4c3.1,0,6-1.2,8.2-3.4c2.2-2.1,3.4-5.1,3.4-8.2c0-3.1-1.2-6-3.4-8.2c-2.1-2.2-5.1-3.4-8.2-3.4
						c-3.1,0-6.1,1.2-8.3,3.4c-2.3,2.1-3.6,5.1-3.5,8.2c0,3.1,1.3,6.1,3.5,8.2C83,30.2,86,31.4,89.1,31.4z"/>
					<path class="st1" d="M69.2,33.2c0.6-2.3-0.2-3.6-2.5-4l-9.5-2.5c-2.3-0.4-3.7,0.4-4.3,2.5l-8,33.3c-0.6,2.1,0.2,3.3,2.5,3.7
						l9.5,2.5c2.3,0.4,3.7-0.4,4.3-2.5L69.2,33.2z"/>
				</g>
				<path class="st1" d="M114.2,150.6v0.3c0,1.6,0.9,2.5,2.8,2.5c1.6,0,2.6-0.7,2.8-2.2l19.7-103.8v-0.3c0-1.6-0.9-2.5-2.8-2.5
					c-1.3-0.1-2.5,0.8-2.8,2.2L114.2,150.6z"/>
				<path class="st1" d="M48.9,143.8v1.5c0,2.2,0.8,4.3,2.3,5.9c1.5,1.6,3.5,2.5,5.7,2.5c4.1,0,6.8-2,8-5.9l14.2-57l13.6,56.7
					c0.4,1.7,1.4,3.2,2.8,4.3c1.5,1.2,3.3,1.9,5.2,1.9c2.2,0,4.2-0.9,5.7-2.5c1.5-1.6,2.3-3.7,2.3-5.9v-1.5L90.2,68.4l1.5-6.5
					l1.2,5.2c0.2,1,0.7,1.8,1.4,2.5c0.5,0.5,1.2,0.9,2,0.9l0.9,0.3l19.1,4.6h0.9c1.5,0,3-0.5,4.2-1.5c1.1-0.9,1.7-2.3,1.7-3.7
					c0-2.9-1.4-4.7-4.3-5.6l-16.6-4l-4.6-17.9c-0.5-2.6-1.8-5-3.9-6.8c-1.5-1.4-3.4-2.4-5.4-2.8l-2.8-0.3c-2.6,0-5,0.8-7.1,2.3
					c-1.8,1.2-3.1,2.8-4,4.8l-0.6,2.5L48.9,143.8z"/>
			</g>
		</g>
	</g>
</g>
</svg>
