<?xml version="1.0" encoding="utf-8"?>
<!-- Generator: Adobe Illustrator 21.1.0, SVG Export Plug-In . SVG Version: 6.00 Build 0)  -->
<svg version="1.1" id="Layer_1" xmlns="http://www.w3.org/2000/svg" xmlns:xlink="http://www.w3.org/1999/xlink" x="0px" y="0px"
	 viewBox="0 0 170.4 170.4" style="enable-background:new 0 0 170.4 170.4;" xml:space="preserve">
<style type="text/css">
	.st0{fill:#71664E;}
	.st1{fill:#FFFFFF;}
</style>
<title>restrooms</title>
<g id="Layer_2">
	<g id="Layer_1-2">
		<g>
			<circle class="st0" cx="85.2" cy="85.2" r="85.2"/>
			<g>
				<g>
					<path class="st1" d="M48,19.7c7.5-2.4,15.8,6.2,12.3,13.5c-2.2,7.3-13,9.2-17.6,3.2C37.8,31.1,40.8,21.1,48,19.7z"/>
					<path class="st1" d="M31.5,43.8c6.8-2.7,14.3-1.4,21.4-1.7c6.2,0.1,13.3-0.8,18.3,3.5c3.9,3,4,8.4,4.1,12.9
						c-0.1,9.9,0.1,19.8,0,29.6c0.1,2.2-0.8,5.6-3.6,5.5c-3.2,0.8-5.4-2.7-5.3-5.5c-0.1-9.6,0-19.2,0-28.8l-3.2,0
						c-0.1,27.5,0.1,55-0.1,82.5c0.7,6.6-10.8,8.1-11.4,1.3c-0.2-16.5,0-33.1-0.1-49.6h-2.8c0,14.4,0,28.8,0,43.2
						c0.1,3.2-0.4,6.3-1.4,9.3c-3.8,3.1-10.9,1.6-10.6-4.1c-0.2-27.5,0.1-55-0.1-82.5h-2.6c-0.2,9.1,0,18.2-0.1,27.3
						c0,3-1.5,7.7-5.3,6.8c-2.2,0.2-3.7-2.4-3.5-4.4c-0.1-11.6-0.1-23.1,0-34.7C25.1,50.2,27.2,45.5,31.5,43.8z"/>
				</g>
				<g>
					<path class="st1" d="M115.3,21.1c6.6-1.4,13.5,4.8,12.1,11.6c-0.6,8.8-13.5,11.4-18.3,4.4C104.4,31.5,108.5,22.6,115.3,21.1z"
						/>
					<path class="st1" d="M101.4,47.8c5-4.8,12.6-3,18.8-3.4c5.2-0.4,11.4,0.3,14.5,5.2c3.7,6.2,4.6,13.5,7.1,20.3
						c1.4,5.8,4.6,11.5,3.2,17.6c-2.7,0.9-6,0.8-7.3-2.1c-3-8.1-5.1-16.6-7.9-24.8c-0.3-1.4-1.5-2.3-2.5-3.2
						c3.8,16.3,9.2,32.3,13.6,48.4c-4,0-8,0.1-12,0c-0.3,11.6,0.1,23.1-0.2,34.7c0.1,2.6-1.7,5.6-4.6,5.5c-2.9,0.2-5-2.7-4.7-5.4
						c-0.1-11.6,0.1-23.3-0.1-34.9c-0.7,0-2.1,0.1-2.8,0.1c-0.2,12,0.2,24.1-0.2,36.1c-0.4,5.4-8.5,5.3-9,0c-0.2-12,0-24.1-0.1-36.1
						c-4,0-8.1,0-12.1-0.1c3.8-15.9,8.2-31.7,12-47.6l-1.8,1.2c-3,8.5-4.8,17.4-7.7,26c-0.9,3.9-7.9,3.6-8-0.6
						c0.6-6.6,3.3-12.8,4.9-19.1C96.5,59.6,97.1,52.7,101.4,47.8L101.4,47.8z"/>
				</g>
			</g>
		</g>
	</g>
</g>
</svg>
