<?xml version="1.0" encoding="utf-8"?>
<!-- Generator: Adobe Illustrator 21.1.0, SVG Export Plug-In . SVG Version: 6.00 Build 0)  -->
<svg version="1.1" id="Layer_1" xmlns="http://www.w3.org/2000/svg" xmlns:xlink="http://www.w3.org/1999/xlink" x="0px" y="0px"
	 viewBox="0 0 170.4 170.4" style="enable-background:new 0 0 170.4 170.4;" xml:space="preserve">
<style type="text/css">
	.st0{fill:#71664E;}
	.st1{fill:#FFFFFF;}
</style>
<title>boat-ramp</title>
<path class="st0" d="M85.2,0C38.1,0,0,38.1,0,85.2s38.1,85.2,85.2,85.2s85.2-38.1,85.2-85.2S132.3,0,85.2,0z"/>
<path class="st1" d="M118.3,123.6c-4.3,5.1-11.3,8.4-20.8,10v8.5H73v-8.5c-5.3-0.9-10-2.2-14-3.8s-8-3.8-12-6.6V94.8h31.7v6.3v2.2
	c0.2,6.1,2.5,9.1,6.7,9.1c2.1,0,3.7-0.8,4.9-2.3c1.1-1.5,1.7-3.6,1.7-6.2c0-3.5-1.1-6.3-3.3-8.1c-1-0.8-2.3-1.5-3.7-2.1
	s-3.7-1.3-6.8-2.1c-6-1.7-10.4-3.1-13.5-4.2c-3-1.1-5.6-2.3-7.8-3.7c-3.7-2.4-6.5-5.7-8.4-9.8c-1.9-4.1-2.9-8.9-2.9-14.2
	c0-6.2,1-11.5,3.1-15.9s5.1-7.9,8.9-10.3c2.2-1.4,4.4-2.4,6.5-3s5.1-1.3,8.9-1.9v-7.8h24.6v8.5c8.3,1.3,16.6,4.6,24.9,10v25.1H91.3
	v-4.9c0-3.4-0.5-6-1.5-7.5c-1-1.6-2.6-2.4-4.9-2.4c-2,0-3.6,0.7-4.7,2c-1.2,1.4-1.7,3.2-1.7,5.6c0,2.6,0.8,4.6,2.4,6
	s4.6,2.8,9.2,4.2c3.2,0.9,5.8,1.7,7.8,2.4c1.9,0.6,3.5,1.2,4.7,1.6s2.2,0.8,3,1.1c0.8,0.3,1.6,0.7,2.6,1.1c6,2.7,10.2,6.3,12.9,10.7
	c2.6,4.4,3.9,10.1,3.9,17.1C124.8,111.1,122.7,118.5,118.3,123.6z"/>
</svg>
