<?xml version="1.0" encoding="utf-8"?>
<!-- Generator: Adobe Illustrator 21.1.0, SVG Export Plug-In . SVG Version: 6.00 Build 0)  -->
<svg version="1.1" id="Layer_1" xmlns="http://www.w3.org/2000/svg" xmlns:xlink="http://www.w3.org/1999/xlink" x="0px" y="0px"
	 viewBox="0 0 170.4 170.4" style="enable-background:new 0 0 170.4 170.4;" xml:space="preserve">
<style type="text/css">
	.st0{fill:#71664E;}
	.st1{fill:#FFFFFF;}
</style>
<title>kayak</title>
<g id="Layer_2">
	<g id="Layer_1-2">
		<g>
			<circle class="st0" cx="85.2" cy="85.2" r="85.2"/>
			<g>
				<path class="st1" d="M47.6,106.9C51,97.2,56,88.7,64.3,82.4c0.7-0.4,1-1.2,0.8-1.9c-1.1-5.9,0.4-11.3,3.4-16.3
					c4-6.8,9.8-11.8,16.5-15.8l1.4-0.8c-0.7-1.9-1.3-3.6-3.3-4.6c-3.7-1.9-6.5-5.3-7.7-9.3c-1.2-3.7-2.3-7.5-3.3-11.3
					c-0.6-2.3,0-3.5,2.2-4.5c2.1-0.9,4.4-1.6,6.7-2c1.4-0.3,2.7,0.3,3.4,1.5c3.3,4.8,5.7,10.3,7,16c0.6,2.7-0.2,5.3-1.3,7.8
					c-0.4,0.8-0.4,1.7,0,2.5c8.9,19.8,17.7,39.7,26.6,59.5c0.3,0.6,0.8,1.2,1.4,1.5c4.1,1.9,7.2,5.4,8.7,9.7
					c1.2,3.4,2.2,6.9,3.3,10.3c0.4,1.2,0.1,1.8-1.2,2.3c-12.5,5-24.7,4.6-36.6-2c-8-4.5-16.1-8.8-24.2-12.9
					c-6.1-3.1-12.9-4.9-19.8-5.2C48,107,47.8,106.9,47.6,106.9z M107.9,95.7L89.8,55c-0.2,0.1-0.4,0.2-0.6,0.2
					c-0.8,0.4-1.5,0.9-2.2,1.3C81.4,60.4,76.7,64.8,74,71c-2.4,5.7-1.4,10.8,2.9,15.3c4.2,4.3,9.6,7.4,15.5,8.9
					C97.5,96.5,102.7,96.7,107.9,95.7z M111.2,103.3c-0.1,0-0.1,0-0.2,0c-10.7,2.3-21.8,0.6-31.3-4.8c-0.5-0.2-1.1-0.1-1.5,0.2
					c-2.7,2-4.7,4.8-5.7,8.1c-0.6,1.9-0.2,2.4,1.8,2.8c13,2.4,25.6,6.6,37.4,12.3c0.5,0.2,0.9,0.4,1.7,0.7c-0.6-1.5-1-2.6-1.4-3.8
					c-1.3-3.4-1.7-6.9-0.2-10.3C112.6,106.9,112.4,104.8,111.2,103.3z"/>
				<path class="st1" d="M110.2,144.9c-8.9-0.3-17.5-2.8-25.1-7.4c-6.8-3.9-13.4-8.1-20.3-11.8c-6.6-3.6-13.6-5.8-21.2-5.2
					c-7.9,0.7-15.6,3.3-22.2,7.7c-0.3,0.2-0.6,0.4-0.9,0.6c-0.4,0.1-0.8,0.1-1.1-0.1c-0.3-0.3-0.4-0.7-0.3-1.1
					c0.3-0.8,0.8-1.6,1.3-2.2c4-4.6,9.1-7.6,14.7-9.8c9.2-3.6,18.3-2.8,27.3,0.7c6.9,2.7,13.4,6.3,19.9,9.9
					c4.8,2.6,9.5,5.5,14.5,7.5c15.7,6.5,35.1,2.3,46.9-10c0.9-1,1.7-2.2,2.6-3.2c0.3-0.4,0.9-0.9,1.2-0.8s1.1,0.7,1.1,1.1
					c0.1,1.6-0.1,3.2-0.4,4.7c-1.4,4.3-4.2,8-8,10.5c-6.3,4-13.3,6.7-20.7,7.8C116.4,144.3,113.3,144.5,110.2,144.9z"/>
				<path class="st1" d="M95,78.9c-0.2,4.9-4.3,8.8-9.2,8.6c-4.7-0.2-8.4-3.9-8.6-8.6c-0.2-4.9,3.7-9,8.6-9.2s9,3.7,9.2,8.6
					C95,78.5,95,78.7,95,78.9z"/>
			</g>
		</g>
	</g>
</g>
</svg>
